<?xml version="1.0" encoding="UTF-8"?>
<svg id="Capa_2" data-name="Capa 2" xmlns="http://www.w3.org/2000/svg" viewBox="0 0 373.33 320.93">
  <defs>
    <style>
      .cls-1, .cls-2 {
        fill: #fff;
      }

      .cls-2 {
        opacity: .3;
      }
    </style>
  </defs>
  <g id="OBJECT">
    <g>
      <g>
        <g>
          <path class="cls-1" d="M264.27,12.84h33.52c3.4,0,6.17-2.76,6.17-6.17s-2.76-6.16-6.17-6.16h-33.52c-3.4,0-6.17,2.76-6.17,6.16s2.76,6.17,6.17,6.17Z"/>
          <path class="cls-1" d="M228.19,12.84h14.27c3.4,0,6.17-2.76,6.17-6.17s-2.76-6.16-6.17-6.16h-14.27c-3.4,0-6.17,2.76-6.17,6.16s2.76,6.17,6.17,6.17Z"/>
          <path class="cls-1" d="M296.58,26.48h-.01c-10.33.02-20.67.03-31,.04-3.4,0-6.16,2.76-6.16,6.17,0,3.4,2.76,6.16,6.16,6.16h0c10.34,0,20.68-.02,31.02-.04,3.4,0,6.16-2.77,6.15-6.18,0-3.4-2.77-6.15-6.17-6.15Z"/>
          <path class="cls-1" d="M263.98,64.78c10.54.04,21.08.06,31.63.08h0c3.4,0,6.16-2.75,6.17-6.16,0-3.4-2.75-6.17-6.16-6.17-10.53-.01-21.07-.04-31.6-.08h-.02c-3.39,0-6.15,2.75-6.16,6.14-.01,3.4,2.74,6.17,6.14,6.19Z"/>
          <path class="cls-1" d="M319.52,64.87h0c14.29,0,28.58-.04,42.87-.09,3.4-.01,6.16-2.78,6.14-6.19-.01-3.4-2.77-6.14-6.16-6.14h-.02c-14.28.05-28.56.08-42.83.09-3.4,0-6.16,2.76-6.16,6.17,0,3.4,2.76,6.16,6.17,6.16Z"/>
          <path class="cls-1" d="M334.69,90.87c3.4,0,6.16-2.77,6.15-6.18,0-3.4-2.77-6.15-6.17-6.15h-.01c-18.56.04-37.22,0-55.45-.12-3.4-.03-6.18,2.72-6.2,6.13-.02,3.4,2.72,6.18,6.13,6.2,13.83.09,27.9.13,41.98.13,4.52,0,9.05,0,13.57-.01Z"/>
          <path class="cls-1" d="M306.47,104.4c-9.61.09-19.29.14-28.77.16-3.4,0-6.16,2.77-6.15,6.18,0,3.4,2.77,6.15,6.17,6.15h.01c9.51-.02,19.21-.08,28.85-.16,3.4-.03,6.14-2.82,6.11-6.22-.03-3.39-2.78-6.11-6.16-6.11h-.06Z"/>
          <path class="cls-1" d="M287.88,162.42c-.05,3.4,2.67,6.21,6.07,6.25,11.86.17,23.83.26,35.68.26,3.08,0,6.16,0,9.22-.02,3.4-.01,6.15-2.78,6.14-6.19-.01-3.4-2.77-6.14-6.16-6.14h-.02c-14.77.06-29.81-.02-44.67-.24-3.42-.08-6.21,2.67-6.25,6.07Z"/>
          <path class="cls-1" d="M307.03,194.95h0c11.29-.02,22.77-.12,34.12-.3,3.4-.06,6.12-2.86,6.06-6.27-.06-3.4-2.85-6.12-6.27-6.06-11.29.18-22.7.29-33.94.3-3.4,0-6.16,2.77-6.16,6.17,0,3.4,2.76,6.16,6.17,6.16Z"/>
          <path class="cls-1" d="M367.17,234.25h-16.23c1.66-1.2,2.65-3.19,2.52-5.32l-.49-8.31h13.51c3.41,0,6.17-2.77,6.17-6.17s-2.75-6.17-6.17-6.17h-14.24l-.15-2.64c-.08-1.66-.84-3.21-2.11-4.29-1.25-1.1-2.87-1.64-4.54-1.5l-62.89,5.14-4.9-10.2c4.44.05,8.9.08,13.35.12h.03c3.4,0,6.15-2.74,6.17-6.13.02-3.4-2.72-6.18-6.13-6.2-6.45-.03-12.94-.12-19.38-.2l-6.55-13.7h12.91c3.41,0,6.17-2.75,6.17-6.17s-2.75-6.17-6.17-6.17h-18.82l-6.5-13.55c8.06.07,16.05.12,24,.12,11.27,0,22.52-.07,33.87-.22,3.4-.03,6.13-2.84,6.08-6.23-.03-3.41-2.82-6.18-6.25-6.08-21.27.27-42.15.27-63.64.03l-6.52-13.62c4.46.02,8.94.07,13.4.08h.03c3.4,0,6.15-2.75,6.15-6.15.02-3.41-2.74-6.18-6.13-6.18-6.47-.03-12.92-.07-19.38-.12l-6.5-13.58c3.33.02,6.61.03,9.88.03,6.57,0,13.13-.03,20.07-.14,3.41-.03,6.13-2.84,6.1-6.23-.05-3.38-2.8-6.08-6.17-6.08h-.08c-12.4.15-23.6.17-35.75.03l-3.33-6.96c-1.17-2.42-2.62-4.65-4.32-6.66,3.04.02,6.03.02,8.97.02,5.86,0,11.59-.03,17.52-.08,3.41-.03,6.15-2.82,6.12-6.23-.03-3.4-2.87-6.1-6.23-6.1-9.78.1-19,.12-29.14.05.08-4.8-.25-9.38-1-13.68,10.05.02,20.1.03,30.15.03,1.71,0,3.24-.69,4.36-1.81,1.45-1.45,2.19-3.63,1.61-5.95-.7-2.79-3.45-4.57-6.32-4.57-11.13,0-22.25-.02-33.36-.03-2.2-5.22-5.17-9.81-8.78-13.65h11.66c3.4,0,6.17-2.75,6.17-6.17s-2.77-6.17-6.17-6.17h-34.8c-8.53-1.37-17.33.03-25.09,4.14-26.81,14.21-22.59,46.07-22.4,47.42.44,3.04,3.04,5.3,6.1,5.3h2.06v7.53c0,1.83.82,3.57,2.23,4.74l11.68,9.7-18.23,15.25-3.31-1.59-8.56-4.14h14.14c3.41,0,6.17-2.75,6.17-6.17s-2.75-6.17-6.17-6.17h-3.83c-4.85-20.03-21.98-50.7-60.54-50.7-27.86,0-41.91,15.58-48.79,28.65-4.43,8.38-6.44,16.69-7.35,22.05h-6.89c-3.41,0-6.17,2.77-6.17,6.17s2.75,6.17,6.17,6.17h33.63l5.78,4.14,84.41,60.48c1.06.76,2.31,1.15,3.58,1.15.79,0,1.61-.15,2.36-.47l30.34-12.53,12.38,23.28-42.3,79.31c-1.15,2.13-.93,4.75.57,6.67l52.05,67.13c1.18,1.5,2.97,2.38,4.88,2.38h22.5c6.22.34,12.4.52,18.65.52s12.7-.19,19.24-.52c3.4-.19,6.01-3.09,5.83-6.49-.19-3.41-3.09-6.03-6.49-5.83-7.74.41-15.25.54-22.72.44l-4.58-9.78c9.85.17,19.88.27,29.95.27,13.37,0,26.8-.17,39.91-.48,2.95-.07,5.7-2.03,6.23-4.93.75-4.04-2.31-7.47-6.19-7.39-24.95.59-51.05.61-75.73.07l-6.35-13.57c2.3.05,4.61.08,6.91.12h.08c3.36,0,6.12-2.7,6.17-6.08.03-3.41-2.69-6.2-6.1-6.25-4.29-.05-8.58-.14-12.89-.2l-4.68-10.02,20.25-32.43,28.26,42.81c-.46.51.02-.02-.44.49-4.4-1.73-8.62,1.48-8.62,5.69.02,3.4,2.77,6.15,6.17,6.15h.02c13.75,0,27.79-.15,41.73-.42,3.41-.07,6.12-2.89,6.05-6.28-.07-3.41-2.87-6.13-6.28-6.05-3.94.08-7.89.15-11.84.2l38.52-13.85h49.75c3.41,0,6.17-2.75,6.17-6.17s-2.75-6.17-6.17-6.17ZM147.96,62v-10.79c0-3.41-2.76-6.17-6.17-6.17h-2.35c.14-7.8,2.42-22.2,16.2-29.5,4.31-2.28,9.11-3.34,13.89-3.19.74.32,1.55.49,2.4.49h1.91c1.74.34,3.46.83,5.14,1.49,7.94,3.16,14.06,9.88,17.33,18.95.08.88.35,1.71.78,2.45,1.69,5.73,2.33,12.25,1.93,19.44-9.53-2.65-19.9-.57-27.82,6.05l-12.04,10.09-11.18-9.31ZM25.54,76.54c2.42-12.47,11.34-38.36,43.65-38.36s43.84,25.56,47.69,38.36H25.54ZM262.09,253.38l-45.27-68.57c-1.89-2.84-5.71-3.63-8.55-1.76-2.84,1.88-3.63,5.71-1.74,8.55l9.87,14.95-25.02,40.04c-1.11,1.77-1.25,3.99-.37,5.88l7.5,16.01c.12.34.27.64.44.95l11.77,25.14c.05.12.1.24.15.34l6.17,13.18h-20.15l-47.77-61.59,41.96-78.67c.96-1.81.96-3.99.02-5.79l-13.38-25.12,21.23-8.77c3.16-1.3,4.65-4.9,3.34-8.04-1.3-3.16-4.9-4.65-8.04-3.34l-59.87,24.71-67.62-48.45-5.78-4.14h30.09l8.58,4.14,29.88,14.43c2.18,1.05,4.78.73,6.62-.83l42.94-35.93c6.15-5.14,14.76-5.71,21.54-1.47.08.07.19.14.29.2,2.79,1.79,5.03,4.36,6.49,7.42l4.26,8.87c.19,1.08.68,2.04,1.37,2.85l11.12,23.21c.2,1,.66,1.89,1.28,2.65l11.27,23.5c.2.9.59,1.69,1.13,2.38l11.35,23.67c.2.83.57,1.61,1.08,2.26l11.45,23.9c.2.71.52,1.37.95,1.96l10.57,22.06c1.1,2.31,3.53,3.68,6.06,3.48l60.83-4.97.12,1.77s-.02,0-.02.02c0,.03.02.05.02.08l.62,10.52-78.79,28.31Z"/>
        </g>
        <path class="cls-1" d="M74.89,14.04c0,3.62-2.93,6.55-6.55,6.55s-6.55-2.93-6.55-6.55,2.93-6.55,6.55-6.55,6.55,2.93,6.55,6.55Z"/>
      </g>
      <polygon class="cls-2" points="177.72 136.91 166.27 141.64 168.67 146.15 180.44 142.02 177.72 136.91"/>
      <polygon class="cls-2" points="223.87 217.86 216.4 206.55 213.36 211.4 220.21 223.71 223.87 217.86"/>
      <polygon class="cls-2" points="60.98 88.87 66.76 93.01 45.58 93.01 39.8 88.87 60.98 88.87"/>
      <polygon class="cls-2" points="128 93.01 99.65 93.01 91.07 88.87 119.43 88.87 128 93.01"/>
    </g>
  </g>
</svg>